<svg width="100" height="100" viewBox="0 0 100 100" fill="none" xmlns="http://www.w3.org/2000/svg">
<path d="M50 43.75C37.9379 43.75 28.125 33.9355 28.125 21.875C28.125 9.81445 37.9379 0 50 0C62.0621 0 71.875 9.81445 71.875 21.875C71.875 33.9355 62.0621 43.75 50 43.75ZM50 6.25C41.3849 6.25 34.375 13.2599 34.375 21.875C34.375 30.4901 41.3849 37.5 50 37.5C58.6151 37.5 65.625 30.4901 65.625 21.875C65.625 13.2599 58.6151 6.25 50 6.25Z" fill="white"/>
<path d="M84.375 100C82.6492 100 81.25 98.6023 81.25 96.875V77.7649C81.25 65.802 71.5179 56.0699 59.5551 56.0699H40.4449C28.4821 56.0699 18.75 65.802 18.75 77.7649V96.875C18.75 98.6023 17.3508 100 15.625 100C13.8992 100 12.5 98.6023 12.5 96.875V77.7649C12.5 62.3566 25.0366 49.8199 40.4449 49.8199H59.5551C74.9634 49.8199 87.5 62.3566 87.5 77.7649V96.875C87.5 98.6023 86.1008 100 84.375 100Z" fill="white"/>
</svg>
